<svg width="65" height="53" viewBox="0 0 65 53" fill="none" xmlns="http://www.w3.org/2000/svg">
<path d="M56.875 16.5625C61.3641 16.5625 65 12.8566 65 8.28125C65 3.70586 61.3641 0 56.875 0C52.3859 0 48.75 3.70586 48.75 8.28125C48.75 12.8566 52.3859 16.5625 56.875 16.5625ZM5.67734 53H58.7945C62.2273 53 65 50.1637 65 46.6752C65 45.5158 64.6852 44.3771 64.0961 43.3834L50.6898 20.993C50.2734 20.2994 49.5422 19.875 48.75 19.875C47.9578 19.875 47.2266 20.2994 46.8102 20.9826L41.9148 29.1604L29.1281 8.38477C28.4578 7.2875 27.2695 6.625 26 6.625C24.7305 6.625 23.5523 7.2875 22.8719 8.38477L0.873438 44.1391C0.304688 45.0604 0 46.1266 0 47.2135C0 50.4121 2.53906 53 5.67734 53Z" fill="#0C671A"/>
</svg>
