<svg width="50" height="35" viewBox="0 0 50 35" fill="none" xmlns="http://www.w3.org/2000/svg">
<path d="M18.7559 10.208C18.7559 11.3683 18.262 12.4811 17.3829 13.3016C16.5038 14.1221 15.3116 14.583 14.0684 14.583C12.8252 14.583 11.6329 14.1221 10.7538 13.3016C9.87472 12.4811 9.38086 11.3683 9.38086 10.208C9.38086 9.04769 9.87472 7.93489 10.7538 7.11442C11.6329 6.29394 12.8252 5.83301 14.0684 5.83301C15.3116 5.83301 16.5038 6.29394 17.3829 7.11442C18.262 7.93489 18.7559 9.04769 18.7559 10.208Z" fill="black"/>
<path d="M4.6875 0C3.4443 0 2.25201 0.460936 1.37294 1.28141C0.49386 2.10188 0 3.21468 0 4.375L0 30.625C0 31.7853 0.49386 32.8981 1.37294 33.7186C2.25201 34.5391 3.4443 35 4.6875 35H45.3125C46.5557 35 47.748 34.5391 48.6271 33.7186C49.5061 32.8981 50 31.7853 50 30.625V4.375C50 3.21468 49.5061 2.10188 48.6271 1.28141C47.748 0.460936 46.5557 0 45.3125 0H4.6875ZM45.3125 2.91667C45.7269 2.91667 46.1243 3.07031 46.4174 3.3438C46.7104 3.61729 46.875 3.98823 46.875 4.375V21.875L35.0781 16.1963C34.7851 16.0592 34.4533 16.0117 34.1297 16.0604C33.8061 16.1091 33.5071 16.2515 33.275 16.4675L21.6813 27.2883L13.3687 22.12C13.0686 21.9335 12.7086 21.8496 12.3498 21.8826C11.991 21.9155 11.6554 22.0633 11.4 22.3008L3.13125 29.1667V30.7417C3.12751 30.7029 3.12543 30.664 3.125 30.625V4.375C3.125 3.98823 3.28962 3.61729 3.58265 3.3438C3.87567 3.07031 4.2731 2.91667 4.6875 2.91667H45.3125Z" fill="black"/>
</svg>
