<svg width="44" height="34" viewBox="0 0 44 34" fill="none" xmlns="http://www.w3.org/2000/svg">
<path d="M4.16667 33.3333C3.02083 33.3333 2.04028 32.9257 1.225 32.1104C0.408333 31.2937 0 30.3125 0 29.1667V4.16667C0 3.02083 0.408333 2.04028 1.225 1.225C2.04028 0.408333 3.02083 0 4.16667 0H14.9479C15.5035 0 16.0333 0.104167 16.5375 0.3125C17.0403 0.520833 17.4826 0.815972 17.8646 1.19792L20.8333 4.16667H37.5C38.6458 4.16667 39.6271 4.575 40.4437 5.39167C41.259 6.20694 41.6667 7.1875 41.6667 8.33333H8.33333C7.1875 8.33333 6.20694 8.74097 5.39167 9.55625C4.575 10.3729 4.16667 11.3542 4.16667 12.5V29.1667L8.28125 15.4688C8.55903 14.566 9.07153 13.8451 9.81875 13.3062C10.5646 12.7688 11.3889 12.5 12.2917 12.5H39.1667C40.5903 12.5 41.7104 13.0639 42.5271 14.1917C43.3424 15.3208 43.559 16.5451 43.1771 17.8646L39.4271 30.3646C39.1493 31.2674 38.6375 31.9882 37.8917 32.5271C37.1444 33.0646 36.3194 33.3333 35.4167 33.3333H4.16667Z" fill="#0FA958"/>
</svg>
