<?xml version="1.0" encoding="iso-8859-1"?>
<!-- Uploaded to: SVG Repo, www.svgrepo.com, Generator: SVG Repo Mixer Tools -->
<svg version="1.1" id="Layer_1" xmlns="http://www.w3.org/2000/svg" xmlns:xlink="http://www.w3.org/1999/xlink" 
	 viewBox="0 0 512.001 512.001" xml:space="preserve">
<path style="fill:#FF3501;" d="M403.626,112.763c-1.177-5.196-5.721-8.823-11.048-8.823H119.424c-5.328,0-9.872,3.629-11.048,8.826
	L35.334,435.008v21.448h440.646l0.689-21.448L403.626,112.763z"/>
<path style="fill:#CD2900;" d="M151.682,112.765c1.177-5.197,5.721-8.826,11.048-8.826h-43.307c-5.328,0-9.872,3.629-11.048,8.826
	L35.334,435.008v21.448h43.307v-21.448L151.682,112.765z"/>
<rect x="222.454" y="317.869" style="fill:#891D00;" width="67.093" height="148.551"/>
<rect x="222.454" y="317.869" style="fill:#720016;" width="32.447" height="148.551"/>
<path style="fill:#2E2D30;" d="M41.522,512c-21.564,0-39.046-17.482-39.046-39.046l0,0c0-21.564,17.482-39.046,39.046-39.046H470.48
	c21.564,0,39.046,17.482,39.046,39.046l0,0c0,21.564-17.482,39.046-39.046,39.046H41.522z"/>
<path style="fill:#1D1D20;" d="M43.108,482.186v-18.464c0-16.44,13.375-29.814,29.814-29.814h-31.4
	c-21.564,0-39.046,17.482-39.046,39.046l0,0c0,21.564,17.482,39.046,39.046,39.046h31.4C56.482,512,43.108,498.625,43.108,482.186z"
	/>
<path style="fill:#AC2201;" d="M256.001,347.016c-48.822,0-88.541-39.719-88.541-88.541s39.719-88.541,88.541-88.541
	s88.541,39.719,88.541,88.541S304.823,347.016,256.001,347.016z"/>
<path style="fill:#891D00;" d="M256.001,299.107c-22.405,0-40.632-18.227-40.632-40.632c0-22.405,18.227-40.632,40.632-40.632
	s40.632,18.227,40.632,40.632S278.405,299.107,256.001,299.107z"/>
<g>
	<path style="fill:#AC2201;" d="M256.001,71.493c4.557,0,8.249-3.693,8.249-8.249V8.249c0-4.556-3.692-8.249-8.249-8.249
		c-4.557,0-8.249,3.693-8.249,8.249v54.995C247.751,67.8,251.444,71.493,256.001,71.493z"/>
	<path style="fill:#AC2201;" d="M431.983,90.741c2.111,0,4.222-0.805,5.834-2.416l43.996-43.996c3.222-3.222,3.222-8.445,0-11.665
		c-3.223-3.222-8.445-3.222-11.667,0l-43.996,43.996c-3.222,3.222-3.222,8.445,0,11.665
		C427.761,89.936,429.873,90.741,431.983,90.741z"/>
	<path style="fill:#AC2201;" d="M74.184,88.325c1.611,1.61,3.723,2.416,5.834,2.416c2.111,0,4.222-0.805,5.834-2.416
		c3.222-3.222,3.222-8.445,0-11.665L41.856,32.664c-3.223-3.222-8.445-3.222-11.667,0c-3.222,3.222-3.222,8.445,0,11.665
		L74.184,88.325z"/>
</g>
</svg>